<svg id="Layer_1" data-name="Layer 1" xmlns="http://www.w3.org/2000/svg" viewBox="0 0 1097.72 1098.08"><defs></defs><path class="cls-1" d="M1216.29,785.41H140.73A544.82,544.82,0,0,0,187.14,920h982.75A544.8,544.8,0,0,0,1216.29,785.41Z" transform="translate(-126.14 -125.96)" fill="#4272b8"></path><path class="cls-1" d="M678.51,1224c167.48,0,317.43-75,418.1-193.27H260.41C361.09,1149,511,1224,678.51,1224Z" transform="translate(-126.14 -125.96)" fill="#4272b8"></path><polygon class="cls-1" points="710 421.07 949.78 181.29 851.88 83.41 616.68 318.62 616.68 0 478.24 0 478.24 315.06 245.42 83.41 152.22 184.81 388.49 421.07 0 421.07 0 555.63 318.05 555.63 552.37 318.26 786.3 555.63 1097.72 555.63 1097.72 421.07 710 421.07" fill="#4272b8"></polygon></svg>
